<svg xmlns="http://www.w3.org/2000/svg" viewBox="0 0 1920 1080"><filter id="c"><feGaussianBlur stdDeviation="55" /></filter><path fill="#aea498" d="M0 0h1920v1080H0z"/><g filter='url(#c)' fill-opacity='.5'><ellipse fill="#655642" fill-opacity=".5" rx="1" ry="1" transform="matrix(80.1246 -253.8788 711.36206 224.50715 582.3 438.2)"/><ellipse fill="#feffff" fill-opacity=".5" rx="1" ry="1" transform="matrix(-111.37054 197.3773 -910.64735 -513.8346 1475.5 210)"/><ellipse fill="#fff" fill-opacity=".5" rx="1" ry="1" transform="matrix(511.59867 273.99996 -127.02285 237.17054 319.7 907.3)"/><ellipse fill="#bb6f00" fill-opacity=".5" rx="1" ry="1" transform="matrix(-73.81393 109.84671 -369.69235 -248.42295 1105.3 1076)"/><path fill-opacity=".5" d="M1619.7 12l34-66.8 334.1 170.3-34 66.8z"/><ellipse fill="#746752" fill-opacity=".5" rx="1" ry="1" transform="matrix(165.75312 277.19192 -171.71333 102.67984 1521.7 938.5)"/><path fill="#eae5ee" fill-opacity=".5" d="M1603.4 392.5l215.1-65.8 245.6 803.3-215.1 65.8z"/><ellipse fill="#62594f" fill-opacity=".5" rx="1" ry="1" transform="rotate(130.5 -30.4 146) scale(234.94542 359.45606)"/></g></svg>