<svg xmlns="http://www.w3.org/2000/svg" viewBox="0 0 1920 1080"><filter id="b"><feGaussianBlur stdDeviation="12" /></filter><path fill="#7b919b" d="M0 0h1920v1080H0z"/><g filter="url(#b)" transform="matrix(7.5 0 0 7.5 3.8 3.8)" fill-opacity=".5"><ellipse fill="#fbffff" rx="1" ry="1" transform="matrix(34.5452 -54.08523 26.94997 17.21343 30.7 47.1)"/><path fill="#00223c" d="M58.3 30.7l90.2-22.5 15.2 61.1-90.2 22.5z"/><ellipse fill="#fff" cx="140" cy="97" rx="100" ry="10"/><ellipse fill="#493f02" cx="195" cy="120" rx="207" ry="15"/><ellipse cx="226" cy="79" rx="67" ry="13"/><ellipse fill="#429efa" rx="1" ry="1" transform="matrix(254.1303 21.04251 -2.16316 26.12452 141 10.7)"/><path fill="#fff" d="M117 81h21v44h-21z"/><path fill="#fff" d="M63.8 99.8L45.1-16l1 140.2L149 70.7z"/></g></svg>